<mxfile host="drawio-plugin" modified="2022-06-24T17:09:20.078Z" agent="5.0 (Windows NT 6.2; Win64; x64) AppleWebKit/537.36 (KHTML, like Gecko) Chrome/97.0.4692.45 Safari/537.36" etag="Q6yft3bZqsxViEUDqTFM" version="15.5.4" type="embed" pages="3"><diagram id="52fd_mbCn0Zgq2GAsz23" name="鼠标按下事件"><mxGraphModel dx="899" dy="742" grid="1" gridSize="10" guides="1" tooltips="1" connect="1" arrows="1" fold="1" page="1" pageScale="1" pageWidth="827" pageHeight="1169" math="0" shadow="0"><root><mxCell id="0"/><mxCell id="1" parent="0"/><mxCell id="TTzPqlR28XLqORXj_Mxo-2" style="edgeStyle=orthogonalEdgeStyle;rounded=0;orthogonalLoop=1;jettySize=auto;html=1;exitX=0.5;exitY=1;exitDx=0;exitDy=0;entryX=0.5;entryY=0;entryDx=0;entryDy=0;entryPerimeter=0;fontFamily=Helvetica;fontSize=18;fontColor=default;" parent="1" source="UeTLdXfRCnfueo0liIJd-1" target="UeTLdXfRCnfueo0liIJd-3" edge="1"><mxGeometry relative="1" as="geometry"/></mxCell><mxCell id="UeTLdXfRCnfueo0liIJd-1" value="&lt;div style=&quot;background-color: rgb(255, 255, 255); font-family: Consolas, &amp;quot;Courier New&amp;quot;, monospace; font-size: 14px; line-height: 19px;&quot;&gt;1. 记录当前对象 myHand.obj = e.target&lt;/div&gt;&lt;div style=&quot;background-color: rgb(255, 255, 255); font-family: Consolas, &amp;quot;Courier New&amp;quot;, monospace; font-size: 14px; line-height: 19px;&quot;&gt;2. 记录当前位置 myHand.startX/Y = e.offsetX/Y&lt;/div&gt;&lt;div style=&quot;background-color: rgb(255, 255, 255); font-family: Consolas, &amp;quot;Courier New&amp;quot;, monospace; font-size: 14px; line-height: 19px;&quot;&gt;3. 设置鼠标点击状态 myHand.mousePressed = true&lt;/div&gt;" style="rounded=1;whiteSpace=wrap;html=1;absoluteArcSize=1;arcSize=14;strokeWidth=2;align=left;" parent="1" vertex="1"><mxGeometry x="120" y="280" width="500" height="150" as="geometry"/></mxCell><mxCell id="TTzPqlR28XLqORXj_Mxo-1" style="edgeStyle=orthogonalEdgeStyle;rounded=0;orthogonalLoop=1;jettySize=auto;html=1;exitX=0.5;exitY=1;exitDx=0;exitDy=0;exitPerimeter=0;entryX=0.5;entryY=0;entryDx=0;entryDy=0;fontFamily=Helvetica;fontSize=18;fontColor=default;" parent="1" source="UeTLdXfRCnfueo0liIJd-2" target="UeTLdXfRCnfueo0liIJd-1" edge="1"><mxGeometry relative="1" as="geometry"/></mxCell><mxCell id="UeTLdXfRCnfueo0liIJd-2" value="开始" style="strokeWidth=2;html=1;shape=mxgraph.flowchart.start_1;whiteSpace=wrap;" parent="1" vertex="1"><mxGeometry x="320" y="150" width="100" height="60" as="geometry"/></mxCell><mxCell id="UeTLdXfRCnfueo0liIJd-3" value="结束" style="strokeWidth=2;html=1;shape=mxgraph.flowchart.terminator;whiteSpace=wrap;" parent="1" vertex="1"><mxGeometry x="320" y="490" width="100" height="60" as="geometry"/></mxCell><mxCell id="UeTLdXfRCnfueo0liIJd-4" value="鼠标按下事件" style="text;html=1;strokeColor=default;fillColor=none;align=center;verticalAlign=middle;whiteSpace=wrap;rounded=0;fontFamily=Helvetica;fontSize=18;fontColor=default;labelBorderColor=none;labelBackgroundColor=none;" parent="1" vertex="1"><mxGeometry width="140" height="30" as="geometry"/></mxCell></root></mxGraphModel></diagram><diagram name="鼠标移动事件" id="Qqb452kRoAzZm2hf-CxU"><mxGraphModel dx="1726" dy="742" grid="1" gridSize="5" guides="1" tooltips="1" connect="1" arrows="1" fold="1" page="1" pageScale="1" pageWidth="827" pageHeight="1169" math="0" shadow="0"><root><mxCell id="rGiCCKBdwmVHUhF3Rx62-0"/><mxCell id="rGiCCKBdwmVHUhF3Rx62-1" parent="rGiCCKBdwmVHUhF3Rx62-0"/><mxCell id="rGiCCKBdwmVHUhF3Rx62-5" value="鼠标移动事件" style="text;html=1;strokeColor=default;fillColor=none;align=center;verticalAlign=middle;whiteSpace=wrap;rounded=0;fontFamily=Helvetica;fontSize=18;fontColor=default;labelBorderColor=none;labelBackgroundColor=none;" parent="rGiCCKBdwmVHUhF3Rx62-1" vertex="1"><mxGeometry width="140" height="30" as="geometry"/></mxCell><mxCell id="A8A4_cCO_hmfx5gr6Hoi-2" style="edgeStyle=orthogonalEdgeStyle;rounded=0;orthogonalLoop=1;jettySize=auto;html=1;exitX=0.5;exitY=1;exitDx=0;exitDy=0;exitPerimeter=0;entryX=0.5;entryY=0;entryDx=0;entryDy=0;fontFamily=Helvetica;fontSize=18;fontColor=default;" parent="rGiCCKBdwmVHUhF3Rx62-1" source="A8A4_cCO_hmfx5gr6Hoi-3" edge="1"><mxGeometry relative="1" as="geometry"><mxPoint x="370" y="190" as="targetPoint"/></mxGeometry></mxCell><mxCell id="A8A4_cCO_hmfx5gr6Hoi-3" value="开始" style="strokeWidth=2;html=1;shape=mxgraph.flowchart.start_1;whiteSpace=wrap;" parent="rGiCCKBdwmVHUhF3Rx62-1" vertex="1"><mxGeometry x="320" y="60" width="100" height="60" as="geometry"/></mxCell><mxCell id="A8A4_cCO_hmfx5gr6Hoi-4" value="结束" style="strokeWidth=2;html=1;shape=mxgraph.flowchart.terminator;whiteSpace=wrap;" parent="rGiCCKBdwmVHUhF3Rx62-1" vertex="1"><mxGeometry x="280" y="1075" width="100" height="60" as="geometry"/></mxCell><mxCell id="tP_8gyTxdGaHlw6_lWVR-0" value="" style="edgeStyle=orthogonalEdgeStyle;rounded=0;orthogonalLoop=1;jettySize=auto;exitX=1;exitY=0.5;exitDx=0;exitDy=0;exitPerimeter=0;fontFamily=Helvetica;fontSize=12;fontColor=default;arcSize=20;fillOpacity=100;strokeOpacity=100;perimeterSpacing=0;html=1;" parent="rGiCCKBdwmVHUhF3Rx62-1" source="A8A4_cCO_hmfx5gr6Hoi-5" edge="1"><mxGeometry relative="1" as="geometry"><mxPoint x="570" y="225" as="targetPoint"/></mxGeometry></mxCell><mxCell id="tP_8gyTxdGaHlw6_lWVR-3" style="edgeStyle=orthogonalEdgeStyle;rounded=0;orthogonalLoop=1;jettySize=auto;html=1;exitX=0.5;exitY=1;exitDx=0;exitDy=0;exitPerimeter=0;fontFamily=Helvetica;fontSize=12;fontColor=default;" parent="rGiCCKBdwmVHUhF3Rx62-1" source="A8A4_cCO_hmfx5gr6Hoi-5" edge="1"><mxGeometry relative="1" as="geometry"><mxPoint x="370" y="310" as="targetPoint"/></mxGeometry></mxCell><mxCell id="A8A4_cCO_hmfx5gr6Hoi-5" value="当前鼠标是否处于按压状态&lt;br style=&quot;font-size: 12px;&quot;&gt;myHand.mousePressed" style="strokeWidth=2;html=1;shape=mxgraph.flowchart.decision;whiteSpace=wrap;fontFamily=Helvetica;fontSize=12;fontColor=default;fillColor=default;" parent="rGiCCKBdwmVHUhF3Rx62-1" vertex="1"><mxGeometry x="250" y="190" width="240" height="70" as="geometry"/></mxCell><mxCell id="tP_8gyTxdGaHlw6_lWVR-1" value="否" style="text;html=1;align=center;verticalAlign=middle;resizable=0;points=[];autosize=1;strokeColor=none;fillColor=none;fontSize=12;fontFamily=Helvetica;fontColor=default;" parent="rGiCCKBdwmVHUhF3Rx62-1" vertex="1"><mxGeometry x="500" y="200" width="40" height="30" as="geometry"/></mxCell><mxCell id="tP_8gyTxdGaHlw6_lWVR-2" value="不处理" style="ellipse;whiteSpace=wrap;html=1;fontFamily=Helvetica;fontSize=12;fontColor=default;strokeColor=default;fillColor=default;" parent="rGiCCKBdwmVHUhF3Rx62-1" vertex="1"><mxGeometry x="570" y="195" width="120" height="60" as="geometry"/></mxCell><mxCell id="tP_8gyTxdGaHlw6_lWVR-4" value="是" style="text;html=1;align=center;verticalAlign=middle;resizable=0;points=[];autosize=1;strokeColor=none;fillColor=none;fontSize=12;fontFamily=Helvetica;fontColor=default;" parent="rGiCCKBdwmVHUhF3Rx62-1" vertex="1"><mxGeometry x="370" y="265" width="40" height="30" as="geometry"/></mxCell><mxCell id="tP_8gyTxdGaHlw6_lWVR-6" style="edgeStyle=orthogonalEdgeStyle;rounded=0;orthogonalLoop=1;jettySize=auto;html=1;exitX=1;exitY=0.5;exitDx=0;exitDy=0;fontFamily=Helvetica;fontSize=12;fontColor=default;" parent="rGiCCKBdwmVHUhF3Rx62-1" source="tP_8gyTxdGaHlw6_lWVR-5" edge="1"><mxGeometry relative="1" as="geometry"><mxPoint x="630" y="460" as="targetPoint"/><Array as="points"><mxPoint x="630" y="350"/><mxPoint x="630" y="450"/></Array></mxGeometry></mxCell><mxCell id="eINNEI8GoLfrnCJ2FQx7-35" style="edgeStyle=orthogonalEdgeStyle;rounded=0;orthogonalLoop=1;jettySize=auto;html=1;exitX=0;exitY=0.5;exitDx=0;exitDy=0;fontFamily=Helvetica;fontSize=12;fontColor=default;" parent="rGiCCKBdwmVHUhF3Rx62-1" source="tP_8gyTxdGaHlw6_lWVR-5" edge="1"><mxGeometry relative="1" as="geometry"><mxPoint x="25" y="350" as="targetPoint"/></mxGeometry></mxCell><mxCell id="tP_8gyTxdGaHlw6_lWVR-5" value="当前对象是否是把手&lt;br&gt;myHand.obj.classList.contains(&quot;handler&quot;)" style="rhombus;whiteSpace=wrap;html=1;fontFamily=Helvetica;fontSize=12;fontColor=default;strokeColor=default;fillColor=default;" parent="rGiCCKBdwmVHUhF3Rx62-1" vertex="1"><mxGeometry x="227.5" y="310" width="285" height="80" as="geometry"/></mxCell><mxCell id="tP_8gyTxdGaHlw6_lWVR-7" value="是" style="text;html=1;align=center;verticalAlign=middle;resizable=0;points=[];autosize=1;strokeColor=none;fillColor=none;fontSize=12;fontFamily=Helvetica;fontColor=default;" parent="rGiCCKBdwmVHUhF3Rx62-1" vertex="1"><mxGeometry x="630" y="375" width="40" height="30" as="geometry"/></mxCell><mxCell id="tP_8gyTxdGaHlw6_lWVR-9" style="edgeStyle=orthogonalEdgeStyle;rounded=0;orthogonalLoop=1;jettySize=auto;html=1;exitX=1;exitY=0.5;exitDx=0;exitDy=0;fontFamily=Helvetica;fontSize=12;fontColor=default;" parent="rGiCCKBdwmVHUhF3Rx62-1" source="tP_8gyTxdGaHlw6_lWVR-8" edge="1"><mxGeometry relative="1" as="geometry"><mxPoint x="840" y="495" as="targetPoint"/></mxGeometry></mxCell><mxCell id="tP_8gyTxdGaHlw6_lWVR-13" style="edgeStyle=orthogonalEdgeStyle;rounded=0;orthogonalLoop=1;jettySize=auto;html=1;exitX=0.5;exitY=1;exitDx=0;exitDy=0;fontFamily=Helvetica;fontSize=12;fontColor=default;" parent="rGiCCKBdwmVHUhF3Rx62-1" source="tP_8gyTxdGaHlw6_lWVR-8" edge="1"><mxGeometry relative="1" as="geometry"><mxPoint x="630" y="610" as="targetPoint"/></mxGeometry></mxCell><mxCell id="tP_8gyTxdGaHlw6_lWVR-8" value="当前模式是否存在&lt;br&gt;myHand.mode" style="rhombus;whiteSpace=wrap;html=1;fontFamily=Helvetica;fontSize=12;fontColor=default;strokeColor=default;fillColor=default;" parent="rGiCCKBdwmVHUhF3Rx62-1" vertex="1"><mxGeometry x="557.5" y="460" width="145" height="70" as="geometry"/></mxCell><mxCell id="tP_8gyTxdGaHlw6_lWVR-10" value="存在" style="text;html=1;align=center;verticalAlign=middle;resizable=0;points=[];autosize=1;strokeColor=none;fillColor=none;fontSize=12;fontFamily=Helvetica;fontColor=default;" parent="rGiCCKBdwmVHUhF3Rx62-1" vertex="1"><mxGeometry x="740" y="470" width="50" height="30" as="geometry"/></mxCell><mxCell id="tP_8gyTxdGaHlw6_lWVR-14" value="不存在" style="text;html=1;align=center;verticalAlign=middle;resizable=0;points=[];autosize=1;strokeColor=none;fillColor=none;fontSize=12;fontFamily=Helvetica;fontColor=default;" parent="rGiCCKBdwmVHUhF3Rx62-1" vertex="1"><mxGeometry x="630" y="545" width="60" height="30" as="geometry"/></mxCell><mxCell id="eINNEI8GoLfrnCJ2FQx7-45" style="edgeStyle=orthogonalEdgeStyle;rounded=0;orthogonalLoop=1;jettySize=auto;html=1;entryX=1;entryY=0.5;entryDx=0;entryDy=0;entryPerimeter=0;fontFamily=Helvetica;fontSize=12;fontColor=default;" parent="rGiCCKBdwmVHUhF3Rx62-1" source="eINNEI8GoLfrnCJ2FQx7-0" target="A8A4_cCO_hmfx5gr6Hoi-4" edge="1"><mxGeometry relative="1" as="geometry"><Array as="points"><mxPoint x="985" y="498"/><mxPoint x="985" y="1105"/></Array></mxGeometry></mxCell><mxCell id="eINNEI8GoLfrnCJ2FQx7-0" value="解释：移动把手，触发图形形变事件" style="rounded=1;whiteSpace=wrap;html=1;absoluteArcSize=1;arcSize=14;strokeWidth=2;fontFamily=Helvetica;fontSize=12;fontColor=default;fillColor=default;" parent="rGiCCKBdwmVHUhF3Rx62-1" vertex="1"><mxGeometry x="840" y="470" width="125" height="55" as="geometry"/></mxCell><mxCell id="eINNEI8GoLfrnCJ2FQx7-2" style="edgeStyle=orthogonalEdgeStyle;rounded=0;orthogonalLoop=1;jettySize=auto;html=1;exitX=1;exitY=0.5;exitDx=0;exitDy=0;entryX=0.5;entryY=1;entryDx=0;entryDy=0;fontFamily=Helvetica;fontSize=12;fontColor=default;" parent="rGiCCKBdwmVHUhF3Rx62-1" target="eINNEI8GoLfrnCJ2FQx7-0" edge="1"><mxGeometry relative="1" as="geometry"><mxPoint x="732.5" y="637.5" as="sourcePoint"/></mxGeometry></mxCell><mxCell id="eINNEI8GoLfrnCJ2FQx7-3" value="执行" style="text;html=1;align=center;verticalAlign=middle;resizable=0;points=[];autosize=1;strokeColor=none;fillColor=none;fontSize=12;fontFamily=Helvetica;fontColor=default;" parent="rGiCCKBdwmVHUhF3Rx62-1" vertex="1"><mxGeometry x="790" y="610" width="50" height="30" as="geometry"/></mxCell><mxCell id="eINNEI8GoLfrnCJ2FQx7-4" value="判断" style="text;html=1;align=center;verticalAlign=middle;resizable=0;points=[];autosize=1;strokeColor=none;fillColor=none;fontSize=12;fontFamily=Helvetica;fontColor=default;" parent="rGiCCKBdwmVHUhF3Rx62-1" vertex="1"><mxGeometry x="370" y="140" width="50" height="30" as="geometry"/></mxCell><mxCell id="eINNEI8GoLfrnCJ2FQx7-7" value="否" style="text;html=1;align=center;verticalAlign=middle;resizable=0;points=[];autosize=1;strokeColor=none;fillColor=none;fontSize=12;fontFamily=Helvetica;fontColor=default;" parent="rGiCCKBdwmVHUhF3Rx62-1" vertex="1"><mxGeometry x="125" y="325" width="40" height="30" as="geometry"/></mxCell><mxCell id="eINNEI8GoLfrnCJ2FQx7-9" style="edgeStyle=orthogonalEdgeStyle;rounded=0;orthogonalLoop=1;jettySize=auto;html=1;exitX=1;exitY=0.5;exitDx=0;exitDy=0;fontFamily=Helvetica;fontSize=12;fontColor=default;" parent="rGiCCKBdwmVHUhF3Rx62-1" source="eINNEI8GoLfrnCJ2FQx7-8" edge="1"><mxGeometry relative="1" as="geometry"><mxPoint x="320" y="506" as="targetPoint"/></mxGeometry></mxCell><mxCell id="eINNEI8GoLfrnCJ2FQx7-12" style="edgeStyle=orthogonalEdgeStyle;rounded=0;orthogonalLoop=1;jettySize=auto;html=1;exitX=0.5;exitY=1;exitDx=0;exitDy=0;fontFamily=Helvetica;fontSize=12;fontColor=default;" parent="rGiCCKBdwmVHUhF3Rx62-1" source="eINNEI8GoLfrnCJ2FQx7-8" edge="1"><mxGeometry relative="1" as="geometry"><mxPoint x="160" y="610" as="targetPoint"/></mxGeometry></mxCell><mxCell id="eINNEI8GoLfrnCJ2FQx7-8" value="移动对象是否是画布&lt;br&gt;myHand.obj===mySvg" style="rhombus;whiteSpace=wrap;html=1;fontFamily=Helvetica;fontSize=12;fontColor=default;strokeColor=default;fillColor=default;" parent="rGiCCKBdwmVHUhF3Rx62-1" vertex="1"><mxGeometry x="75" y="460" width="170" height="92.5" as="geometry"/></mxCell><mxCell id="eINNEI8GoLfrnCJ2FQx7-10" value="是" style="text;html=1;align=center;verticalAlign=middle;resizable=0;points=[];autosize=1;strokeColor=none;fillColor=none;fontSize=12;fontFamily=Helvetica;fontColor=default;" parent="rGiCCKBdwmVHUhF3Rx62-1" vertex="1"><mxGeometry x="255" y="474.38" width="35" height="30" as="geometry"/></mxCell><mxCell id="eINNEI8GoLfrnCJ2FQx7-11" value="解释：未选中图形，但是拖动了鼠标，表示创建选区&lt;br&gt;1. 清空所有图形编辑状态&lt;br&gt;2. 创建选区&lt;br&gt;3. 选中区域内图形" style="rounded=1;whiteSpace=wrap;html=1;absoluteArcSize=1;arcSize=14;strokeWidth=2;fontFamily=Helvetica;fontSize=12;fontColor=default;fillColor=default;align=left;" parent="rGiCCKBdwmVHUhF3Rx62-1" vertex="1"><mxGeometry x="320" y="440" width="175" height="98.75" as="geometry"/></mxCell><mxCell id="eINNEI8GoLfrnCJ2FQx7-13" value="否" style="text;html=1;align=center;verticalAlign=middle;resizable=0;points=[];autosize=1;strokeColor=none;fillColor=none;fontSize=12;fontFamily=Helvetica;fontColor=default;" parent="rGiCCKBdwmVHUhF3Rx62-1" vertex="1"><mxGeometry x="158" y="560" width="35" height="30" as="geometry"/></mxCell><mxCell id="eINNEI8GoLfrnCJ2FQx7-16" style="edgeStyle=orthogonalEdgeStyle;rounded=0;orthogonalLoop=1;jettySize=auto;html=1;fontFamily=Helvetica;fontSize=12;fontColor=default;" parent="rGiCCKBdwmVHUhF3Rx62-1" source="eINNEI8GoLfrnCJ2FQx7-15" edge="1"><mxGeometry relative="1" as="geometry"><mxPoint x="160" y="750" as="targetPoint"/></mxGeometry></mxCell><mxCell id="eINNEI8GoLfrnCJ2FQx7-18" style="edgeStyle=orthogonalEdgeStyle;rounded=0;orthogonalLoop=1;jettySize=auto;html=1;exitX=1;exitY=0.5;exitDx=0;exitDy=0;fontFamily=Helvetica;fontSize=12;fontColor=default;" parent="rGiCCKBdwmVHUhF3Rx62-1" source="eINNEI8GoLfrnCJ2FQx7-15" edge="1"><mxGeometry relative="1" as="geometry"><mxPoint x="330" y="653" as="targetPoint"/></mxGeometry></mxCell><mxCell id="eINNEI8GoLfrnCJ2FQx7-15" value="当前对象是否处于编辑状态&lt;br&gt;myHand.isEditing(myHand.obj)" style="rhombus;whiteSpace=wrap;html=1;fontFamily=Helvetica;fontSize=12;fontColor=default;strokeColor=default;fillColor=default;" parent="rGiCCKBdwmVHUhF3Rx62-1" vertex="1"><mxGeometry x="50" y="610" width="220" height="85" as="geometry"/></mxCell><mxCell id="eINNEI8GoLfrnCJ2FQx7-17" value="是" style="text;html=1;align=center;verticalAlign=middle;resizable=0;points=[];autosize=1;strokeColor=none;fillColor=none;fontSize=12;fontFamily=Helvetica;fontColor=default;" parent="rGiCCKBdwmVHUhF3Rx62-1" vertex="1"><mxGeometry x="158" y="705" width="35" height="30" as="geometry"/></mxCell><mxCell id="eINNEI8GoLfrnCJ2FQx7-19" value="否" style="text;html=1;align=center;verticalAlign=middle;resizable=0;points=[];autosize=1;strokeColor=none;fillColor=none;fontSize=12;fontFamily=Helvetica;fontColor=default;" parent="rGiCCKBdwmVHUhF3Rx62-1" vertex="1"><mxGeometry x="280" y="622.5" width="35" height="30" as="geometry"/></mxCell><mxCell id="eINNEI8GoLfrnCJ2FQx7-25" style="edgeStyle=orthogonalEdgeStyle;rounded=0;orthogonalLoop=1;jettySize=auto;html=1;exitX=0.5;exitY=1;exitDx=0;exitDy=0;entryX=1;entryY=0.5;entryDx=0;entryDy=0;fontFamily=Helvetica;fontSize=12;fontColor=default;" parent="rGiCCKBdwmVHUhF3Rx62-1" source="eINNEI8GoLfrnCJ2FQx7-20" target="eINNEI8GoLfrnCJ2FQx7-24" edge="1"><mxGeometry relative="1" as="geometry"/></mxCell><mxCell id="eINNEI8GoLfrnCJ2FQx7-20" value="解释：如果拖动的图形不是已编辑状态，则清除其他已编辑对象状态，设置本图形为编辑状态&lt;br&gt;1. 清空所有图形编辑状态&lt;br&gt;2. 设置当前图形为编辑状态" style="rounded=1;whiteSpace=wrap;html=1;absoluteArcSize=1;arcSize=14;strokeWidth=2;fontFamily=Helvetica;fontSize=12;fontColor=default;fillColor=default;align=left;" parent="rGiCCKBdwmVHUhF3Rx62-1" vertex="1"><mxGeometry x="331" y="570" width="169" height="115" as="geometry"/></mxCell><mxCell id="eINNEI8GoLfrnCJ2FQx7-26" style="edgeStyle=orthogonalEdgeStyle;rounded=0;orthogonalLoop=1;jettySize=auto;html=1;exitX=0.5;exitY=1;exitDx=0;exitDy=0;fontFamily=Helvetica;fontSize=12;fontColor=default;" parent="rGiCCKBdwmVHUhF3Rx62-1" source="eINNEI8GoLfrnCJ2FQx7-24" edge="1"><mxGeometry relative="1" as="geometry"><mxPoint x="160" y="895" as="targetPoint"/></mxGeometry></mxCell><mxCell id="eINNEI8GoLfrnCJ2FQx7-28" style="edgeStyle=orthogonalEdgeStyle;rounded=0;orthogonalLoop=1;jettySize=auto;html=1;exitX=0;exitY=0.5;exitDx=0;exitDy=0;fontFamily=Helvetica;fontSize=12;fontColor=default;" parent="rGiCCKBdwmVHUhF3Rx62-1" source="eINNEI8GoLfrnCJ2FQx7-24" edge="1"><mxGeometry relative="1" as="geometry"><mxPoint x="20" y="785" as="targetPoint"/></mxGeometry></mxCell><mxCell id="eINNEI8GoLfrnCJ2FQx7-24" value="当前模式是否存在&lt;br&gt;myHand.mode" style="rhombus;whiteSpace=wrap;html=1;fontFamily=Helvetica;fontSize=12;fontColor=default;strokeColor=default;fillColor=default;" parent="rGiCCKBdwmVHUhF3Rx62-1" vertex="1"><mxGeometry x="87.5" y="750" width="145" height="70" as="geometry"/></mxCell><mxCell id="eINNEI8GoLfrnCJ2FQx7-27" value="否" style="text;html=1;align=center;verticalAlign=middle;resizable=0;points=[];autosize=1;strokeColor=none;fillColor=none;fontSize=12;fontFamily=Helvetica;fontColor=default;" parent="rGiCCKBdwmVHUhF3Rx62-1" vertex="1"><mxGeometry x="40" y="755" width="35" height="30" as="geometry"/></mxCell><mxCell id="eINNEI8GoLfrnCJ2FQx7-29" value="是" style="text;html=1;align=center;verticalAlign=middle;resizable=0;points=[];autosize=1;strokeColor=none;fillColor=none;fontSize=12;fontFamily=Helvetica;fontColor=default;" parent="rGiCCKBdwmVHUhF3Rx62-1" vertex="1"><mxGeometry x="155" y="825" width="35" height="30" as="geometry"/></mxCell><mxCell id="eINNEI8GoLfrnCJ2FQx7-33" style="edgeStyle=orthogonalEdgeStyle;rounded=0;orthogonalLoop=1;jettySize=auto;html=1;exitX=0.5;exitY=1;exitDx=0;exitDy=0;entryX=0;entryY=0.5;entryDx=0;entryDy=0;fontFamily=Helvetica;fontSize=12;fontColor=default;" parent="rGiCCKBdwmVHUhF3Rx62-1" source="eINNEI8GoLfrnCJ2FQx7-31" target="eINNEI8GoLfrnCJ2FQx7-32" edge="1"><mxGeometry relative="1" as="geometry"/></mxCell><mxCell id="eINNEI8GoLfrnCJ2FQx7-31" value="解释：第一次拖动图形，需要设置操作模式并创建快照&lt;br&gt;1. 设置模式&lt;br&gt;2. 创建快照" style="rounded=1;whiteSpace=wrap;html=1;absoluteArcSize=1;arcSize=14;strokeWidth=2;fontFamily=Helvetica;fontSize=12;fontColor=default;fillColor=default;align=left;" parent="rGiCCKBdwmVHUhF3Rx62-1" vertex="1"><mxGeometry x="-165" y="735" width="185" height="82.5" as="geometry"/></mxCell><mxCell id="eINNEI8GoLfrnCJ2FQx7-47" style="edgeStyle=orthogonalEdgeStyle;rounded=0;orthogonalLoop=1;jettySize=auto;html=1;exitX=1;exitY=0.5;exitDx=0;exitDy=0;fontFamily=Helvetica;fontSize=12;fontColor=default;" parent="rGiCCKBdwmVHUhF3Rx62-1" source="eINNEI8GoLfrnCJ2FQx7-32" target="A8A4_cCO_hmfx5gr6Hoi-4" edge="1"><mxGeometry relative="1" as="geometry"/></mxCell><mxCell id="eINNEI8GoLfrnCJ2FQx7-32" value="解释：操作已就绪，触发移动（所有选中的）图形事件" style="rounded=1;whiteSpace=wrap;html=1;absoluteArcSize=1;arcSize=14;strokeWidth=2;fontFamily=Helvetica;fontSize=12;fontColor=default;fillColor=default;align=left;" parent="rGiCCKBdwmVHUhF3Rx62-1" vertex="1"><mxGeometry x="67.5" y="895" width="185" height="82.5" as="geometry"/></mxCell><mxCell id="eINNEI8GoLfrnCJ2FQx7-37" style="edgeStyle=orthogonalEdgeStyle;rounded=0;orthogonalLoop=1;jettySize=auto;html=1;exitX=0.5;exitY=1;exitDx=0;exitDy=0;entryX=0;entryY=0.5;entryDx=0;entryDy=0;fontFamily=Helvetica;fontSize=12;fontColor=default;" parent="rGiCCKBdwmVHUhF3Rx62-1" source="eINNEI8GoLfrnCJ2FQx7-36" target="eINNEI8GoLfrnCJ2FQx7-8" edge="1"><mxGeometry relative="1" as="geometry"/></mxCell><mxCell id="eINNEI8GoLfrnCJ2FQx7-40" style="edgeStyle=orthogonalEdgeStyle;rounded=0;orthogonalLoop=1;jettySize=auto;html=1;exitX=0;exitY=0.5;exitDx=0;exitDy=0;fontFamily=Helvetica;fontSize=12;fontColor=default;" parent="rGiCCKBdwmVHUhF3Rx62-1" source="eINNEI8GoLfrnCJ2FQx7-36" edge="1"><mxGeometry relative="1" as="geometry"><mxPoint x="-265" y="350" as="targetPoint"/></mxGeometry></mxCell><mxCell id="eINNEI8GoLfrnCJ2FQx7-36" value="当前画笔是否可进行绘画" style="rhombus;whiteSpace=wrap;html=1;fontFamily=Helvetica;fontSize=12;fontColor=default;strokeColor=default;fillColor=default;" parent="rGiCCKBdwmVHUhF3Rx62-1" vertex="1"><mxGeometry x="-145" y="303.75" width="170" height="92.5" as="geometry"/></mxCell><mxCell id="eINNEI8GoLfrnCJ2FQx7-38" value="否" style="text;html=1;align=center;verticalAlign=middle;resizable=0;points=[];autosize=1;strokeColor=none;fillColor=none;fontSize=12;fontFamily=Helvetica;fontColor=default;" parent="rGiCCKBdwmVHUhF3Rx62-1" vertex="1"><mxGeometry x="-55" y="420" width="40" height="30" as="geometry"/></mxCell><mxCell id="eINNEI8GoLfrnCJ2FQx7-39" value="是" style="text;html=1;align=center;verticalAlign=middle;resizable=0;points=[];autosize=1;strokeColor=none;fillColor=none;fontSize=12;fontFamily=Helvetica;fontColor=default;" parent="rGiCCKBdwmVHUhF3Rx62-1" vertex="1"><mxGeometry x="-220" y="315" width="35" height="30" as="geometry"/></mxCell><mxCell id="eINNEI8GoLfrnCJ2FQx7-46" style="edgeStyle=orthogonalEdgeStyle;rounded=0;orthogonalLoop=1;jettySize=auto;html=1;exitX=0.5;exitY=1;exitDx=0;exitDy=0;entryX=0;entryY=0.5;entryDx=0;entryDy=0;entryPerimeter=0;fontFamily=Helvetica;fontSize=12;fontColor=default;" parent="rGiCCKBdwmVHUhF3Rx62-1" source="eINNEI8GoLfrnCJ2FQx7-41" target="A8A4_cCO_hmfx5gr6Hoi-4" edge="1"><mxGeometry relative="1" as="geometry"/></mxCell><mxCell id="eINNEI8GoLfrnCJ2FQx7-41" value="解释：取消所有图形的编辑状态，根据myHand.type绘制不同图形，并设置mode为create，绘制图形后，替换myHand.obj为默认图形把手，后续鼠标移动事件走把手移动逻辑&lt;br&gt;1. 创建图形对象并添加到画布&lt;br&gt;2. 设置mode为create&lt;br&gt;3. 将对象设为编辑状态，并使用默认把手替换 myHand.obj" style="rounded=1;whiteSpace=wrap;html=1;absoluteArcSize=1;arcSize=14;strokeWidth=2;fontFamily=Helvetica;fontSize=12;fontColor=default;fillColor=default;align=left;" parent="rGiCCKBdwmVHUhF3Rx62-1" vertex="1"><mxGeometry x="-500" y="277.5" width="235" height="142.5" as="geometry"/></mxCell><mxCell id="eINNEI8GoLfrnCJ2FQx7-43" value="解释：如果未设置mode，则表示当前为第一次拖动把手，所以得创建快照&lt;br&gt;1. 设置模式&lt;br&gt;2. 创建快照" style="rounded=1;whiteSpace=wrap;html=1;absoluteArcSize=1;arcSize=14;strokeWidth=2;fontFamily=Helvetica;fontSize=12;fontColor=default;fillColor=default;align=left;" parent="rGiCCKBdwmVHUhF3Rx62-1" vertex="1"><mxGeometry x="555" y="610" width="185" height="82.5" as="geometry"/></mxCell></root></mxGraphModel></diagram><diagram name="鼠标抬起事件" id="TdmOgFt8pNsaSbe23kVR"><mxGraphModel dx="1422" dy="762" grid="1" gridSize="5" guides="1" tooltips="1" connect="1" arrows="1" fold="1" page="1" pageScale="1" pageWidth="1169" pageHeight="827" math="0" shadow="0"><root><mxCell id="yNHjKCnxc_WirZ0jlTK9-0"/><mxCell id="yNHjKCnxc_WirZ0jlTK9-1" parent="yNHjKCnxc_WirZ0jlTK9-0"/><mxCell id="YPFulSD3QjbIXYYutTF_-14" style="edgeStyle=orthogonalEdgeStyle;rounded=0;orthogonalLoop=1;jettySize=auto;html=1;exitX=0.5;exitY=1;exitDx=0;exitDy=0;exitPerimeter=0;entryX=0.5;entryY=0;entryDx=0;entryDy=0;fontFamily=Helvetica;fontSize=12;fontColor=default;" edge="1" parent="yNHjKCnxc_WirZ0jlTK9-1" source="yNHjKCnxc_WirZ0jlTK9-3" target="BXnKgvj5ldsGzjbOsoTR-1"><mxGeometry relative="1" as="geometry"/></mxCell><mxCell id="yNHjKCnxc_WirZ0jlTK9-3" value="开始" style="strokeWidth=2;html=1;shape=mxgraph.flowchart.start_1;whiteSpace=wrap;" vertex="1" parent="yNHjKCnxc_WirZ0jlTK9-1"><mxGeometry x="330" y="50" width="100" height="60" as="geometry"/></mxCell><mxCell id="yNHjKCnxc_WirZ0jlTK9-4" value="结束" style="strokeWidth=2;html=1;shape=mxgraph.flowchart.terminator;whiteSpace=wrap;" vertex="1" parent="yNHjKCnxc_WirZ0jlTK9-1"><mxGeometry x="100" y="651.25" width="100" height="60" as="geometry"/></mxCell><mxCell id="yNHjKCnxc_WirZ0jlTK9-5" value="鼠标抬起事件" style="text;html=1;strokeColor=default;fillColor=none;align=center;verticalAlign=middle;whiteSpace=wrap;rounded=0;fontFamily=Helvetica;fontSize=18;fontColor=default;labelBorderColor=none;labelBackgroundColor=none;" vertex="1" parent="yNHjKCnxc_WirZ0jlTK9-1"><mxGeometry width="140" height="30" as="geometry"/></mxCell><mxCell id="BXnKgvj5ldsGzjbOsoTR-3" style="edgeStyle=orthogonalEdgeStyle;rounded=0;orthogonalLoop=1;jettySize=auto;html=1;exitX=1;exitY=0.5;exitDx=0;exitDy=0;entryX=0.5;entryY=0;entryDx=0;entryDy=0;fontFamily=Helvetica;fontSize=12;fontColor=default;" edge="1" parent="yNHjKCnxc_WirZ0jlTK9-1" source="BXnKgvj5ldsGzjbOsoTR-1" target="BXnKgvj5ldsGzjbOsoTR-2"><mxGeometry relative="1" as="geometry"/></mxCell><mxCell id="YPFulSD3QjbIXYYutTF_-13" style="edgeStyle=orthogonalEdgeStyle;rounded=0;orthogonalLoop=1;jettySize=auto;html=1;exitX=0.5;exitY=1;exitDx=0;exitDy=0;fontFamily=Helvetica;fontSize=12;fontColor=default;" edge="1" parent="yNHjKCnxc_WirZ0jlTK9-1" source="BXnKgvj5ldsGzjbOsoTR-1"><mxGeometry relative="1" as="geometry"><mxPoint x="380" y="305" as="targetPoint"/></mxGeometry></mxCell><mxCell id="BXnKgvj5ldsGzjbOsoTR-1" value="鼠标是否按压且移动&lt;br&gt;myHand.mousePressingMove" style="rhombus;whiteSpace=wrap;html=1;fontFamily=Helvetica;fontSize=12;fontColor=default;strokeColor=default;fillColor=default;" vertex="1" parent="yNHjKCnxc_WirZ0jlTK9-1"><mxGeometry x="275" y="150" width="210" height="90" as="geometry"/></mxCell><mxCell id="YPFulSD3QjbIXYYutTF_-1" style="edgeStyle=orthogonalEdgeStyle;rounded=0;orthogonalLoop=1;jettySize=auto;html=1;exitX=0.5;exitY=1;exitDx=0;exitDy=0;entryX=0.546;entryY=0;entryDx=0;entryDy=0;entryPerimeter=0;fontFamily=Helvetica;fontSize=12;fontColor=default;" edge="1" parent="yNHjKCnxc_WirZ0jlTK9-1" source="BXnKgvj5ldsGzjbOsoTR-2" target="YPFulSD3QjbIXYYutTF_-0"><mxGeometry relative="1" as="geometry"/></mxCell><mxCell id="YPFulSD3QjbIXYYutTF_-8" style="edgeStyle=orthogonalEdgeStyle;rounded=0;orthogonalLoop=1;jettySize=auto;html=1;exitX=1;exitY=0.5;exitDx=0;exitDy=0;entryX=1;entryY=0.5;entryDx=0;entryDy=0;fontFamily=Helvetica;fontSize=12;fontColor=default;" edge="1" parent="yNHjKCnxc_WirZ0jlTK9-1" source="BXnKgvj5ldsGzjbOsoTR-2" target="YPFulSD3QjbIXYYutTF_-7"><mxGeometry relative="1" as="geometry"/></mxCell><mxCell id="BXnKgvj5ldsGzjbOsoTR-2" value="点击对象是否是画布&lt;br&gt;myHand.obj === mySvg" style="rhombus;whiteSpace=wrap;html=1;fontFamily=Helvetica;fontSize=12;fontColor=default;strokeColor=default;fillColor=default;" vertex="1" parent="yNHjKCnxc_WirZ0jlTK9-1"><mxGeometry x="710" y="240" width="190" height="80" as="geometry"/></mxCell><mxCell id="BXnKgvj5ldsGzjbOsoTR-4" value="否：点击事件" style="text;html=1;align=center;verticalAlign=middle;resizable=0;points=[];autosize=1;strokeColor=none;fillColor=none;fontSize=12;fontFamily=Helvetica;fontColor=default;" vertex="1" parent="yNHjKCnxc_WirZ0jlTK9-1"><mxGeometry x="605" y="165" width="100" height="30" as="geometry"/></mxCell><mxCell id="YPFulSD3QjbIXYYutTF_-6" style="edgeStyle=orthogonalEdgeStyle;rounded=0;orthogonalLoop=1;jettySize=auto;html=1;exitX=0.5;exitY=1;exitDx=0;exitDy=0;entryX=0.5;entryY=0;entryDx=0;entryDy=0;fontFamily=Helvetica;fontSize=12;fontColor=default;" edge="1" parent="yNHjKCnxc_WirZ0jlTK9-1" source="YPFulSD3QjbIXYYutTF_-0"><mxGeometry relative="1" as="geometry"><mxPoint x="797.5" y="505" as="targetPoint"/></mxGeometry></mxCell><mxCell id="YPFulSD3QjbIXYYutTF_-0" value="解释：凭空点击画布，表示清除所有选区&lt;br&gt;1. 清空所有编辑状态" style="rounded=1;whiteSpace=wrap;html=1;absoluteArcSize=1;arcSize=14;strokeWidth=2;fontFamily=Helvetica;fontSize=12;fontColor=default;fillColor=default;align=left;" vertex="1" parent="yNHjKCnxc_WirZ0jlTK9-1"><mxGeometry x="705" y="375" width="185" height="82.5" as="geometry"/></mxCell><mxCell id="YPFulSD3QjbIXYYutTF_-2" value="是" style="text;html=1;align=center;verticalAlign=middle;resizable=0;points=[];autosize=1;strokeColor=none;fillColor=none;fontSize=12;fontFamily=Helvetica;fontColor=default;" vertex="1" parent="yNHjKCnxc_WirZ0jlTK9-1"><mxGeometry x="800" y="330" width="35" height="30" as="geometry"/></mxCell><mxCell id="YPFulSD3QjbIXYYutTF_-4" value="否" style="text;html=1;align=center;verticalAlign=middle;resizable=0;points=[];autosize=1;strokeColor=none;fillColor=none;fontSize=12;fontFamily=Helvetica;fontColor=default;" vertex="1" parent="yNHjKCnxc_WirZ0jlTK9-1"><mxGeometry x="920" y="395" width="35" height="30" as="geometry"/></mxCell><mxCell id="YPFulSD3QjbIXYYutTF_-9" style="edgeStyle=orthogonalEdgeStyle;rounded=0;orthogonalLoop=1;jettySize=auto;html=1;exitX=0.5;exitY=1;exitDx=0;exitDy=0;fontFamily=Helvetica;fontSize=12;fontColor=default;" edge="1" parent="yNHjKCnxc_WirZ0jlTK9-1" source="YPFulSD3QjbIXYYutTF_-7"><mxGeometry relative="1" as="geometry"><mxPoint x="800" y="640" as="targetPoint"/></mxGeometry></mxCell><mxCell id="YPFulSD3QjbIXYYutTF_-7" value="点击对象是否是图形" style="rhombus;whiteSpace=wrap;html=1;fontFamily=Helvetica;fontSize=12;fontColor=default;strokeColor=default;fillColor=default;" vertex="1" parent="yNHjKCnxc_WirZ0jlTK9-1"><mxGeometry x="705" y="505" width="190" height="80" as="geometry"/></mxCell><mxCell id="YPFulSD3QjbIXYYutTF_-10" value="是" style="text;html=1;align=center;verticalAlign=middle;resizable=0;points=[];autosize=1;strokeColor=none;fillColor=none;fontSize=12;fontFamily=Helvetica;fontColor=default;" vertex="1" parent="yNHjKCnxc_WirZ0jlTK9-1"><mxGeometry x="805" y="590" width="35" height="30" as="geometry"/></mxCell><mxCell id="YPFulSD3QjbIXYYutTF_-25" style="edgeStyle=orthogonalEdgeStyle;rounded=0;orthogonalLoop=1;jettySize=auto;html=1;exitX=0;exitY=0.5;exitDx=0;exitDy=0;entryX=1;entryY=0.5;entryDx=0;entryDy=0;fontFamily=Helvetica;fontSize=12;fontColor=default;" edge="1" parent="yNHjKCnxc_WirZ0jlTK9-1" source="YPFulSD3QjbIXYYutTF_-11" target="YPFulSD3QjbIXYYutTF_-24"><mxGeometry relative="1" as="geometry"/></mxCell><mxCell id="YPFulSD3QjbIXYYutTF_-11" value="解释：点击图形，清空所有编辑状态，设置本图形为编辑状态&lt;br&gt;1. 清空所有编辑状态&lt;br&gt;2. 设置本图形为编辑状态" style="rounded=1;whiteSpace=wrap;html=1;absoluteArcSize=1;arcSize=14;strokeWidth=2;fontFamily=Helvetica;fontSize=12;fontColor=default;fillColor=default;align=left;" vertex="1" parent="yNHjKCnxc_WirZ0jlTK9-1"><mxGeometry x="707.5" y="640" width="185" height="82.5" as="geometry"/></mxCell><mxCell id="YPFulSD3QjbIXYYutTF_-15" value="是：拖动事件" style="text;html=1;align=center;verticalAlign=middle;resizable=0;points=[];autosize=1;strokeColor=none;fillColor=none;fontSize=12;fontFamily=Helvetica;fontColor=default;" vertex="1" parent="yNHjKCnxc_WirZ0jlTK9-1"><mxGeometry x="375" y="250" width="95" height="30" as="geometry"/></mxCell><mxCell id="YPFulSD3QjbIXYYutTF_-20" style="edgeStyle=orthogonalEdgeStyle;rounded=0;orthogonalLoop=1;jettySize=auto;html=1;exitX=0;exitY=0.5;exitDx=0;exitDy=0;entryX=0.47;entryY=-0.012;entryDx=0;entryDy=0;entryPerimeter=0;fontFamily=Helvetica;fontSize=12;fontColor=default;" edge="1" parent="yNHjKCnxc_WirZ0jlTK9-1" source="YPFulSD3QjbIXYYutTF_-17" target="YPFulSD3QjbIXYYutTF_-18"><mxGeometry relative="1" as="geometry"/></mxCell><mxCell id="YPFulSD3QjbIXYYutTF_-21" style="edgeStyle=orthogonalEdgeStyle;rounded=0;orthogonalLoop=1;jettySize=auto;html=1;exitX=1;exitY=0.5;exitDx=0;exitDy=0;entryX=0.546;entryY=0.012;entryDx=0;entryDy=0;entryPerimeter=0;fontFamily=Helvetica;fontSize=12;fontColor=default;" edge="1" parent="yNHjKCnxc_WirZ0jlTK9-1" source="YPFulSD3QjbIXYYutTF_-17" target="YPFulSD3QjbIXYYutTF_-19"><mxGeometry relative="1" as="geometry"/></mxCell><mxCell id="YPFulSD3QjbIXYYutTF_-17" value="对象是否是画布&lt;br&gt;myHand.obj === mySvg" style="rhombus;whiteSpace=wrap;html=1;fontFamily=Helvetica;fontSize=12;fontColor=default;strokeColor=default;fillColor=default;" vertex="1" parent="yNHjKCnxc_WirZ0jlTK9-1"><mxGeometry x="302.5" y="305" width="155" height="95" as="geometry"/></mxCell><mxCell id="YPFulSD3QjbIXYYutTF_-27" style="edgeStyle=orthogonalEdgeStyle;rounded=0;orthogonalLoop=1;jettySize=auto;html=1;exitX=0.5;exitY=1;exitDx=0;exitDy=0;entryX=0.5;entryY=0;entryDx=0;entryDy=0;fontFamily=Helvetica;fontSize=12;fontColor=default;" edge="1" parent="yNHjKCnxc_WirZ0jlTK9-1" source="YPFulSD3QjbIXYYutTF_-18" target="YPFulSD3QjbIXYYutTF_-24"><mxGeometry relative="1" as="geometry"/></mxCell><mxCell id="YPFulSD3QjbIXYYutTF_-18" value="解释：区域选中效果&lt;br&gt;1. 选中区域内的图形，设置为编辑状态" style="rounded=1;whiteSpace=wrap;html=1;absoluteArcSize=1;arcSize=14;strokeWidth=2;fontFamily=Helvetica;fontSize=12;fontColor=default;fillColor=default;align=left;" vertex="1" parent="yNHjKCnxc_WirZ0jlTK9-1"><mxGeometry x="145" y="425" width="185" height="82.5" as="geometry"/></mxCell><mxCell id="YPFulSD3QjbIXYYutTF_-26" style="edgeStyle=orthogonalEdgeStyle;rounded=0;orthogonalLoop=1;jettySize=auto;html=1;exitX=0.5;exitY=1;exitDx=0;exitDy=0;entryX=0.5;entryY=0;entryDx=0;entryDy=0;fontFamily=Helvetica;fontSize=12;fontColor=default;" edge="1" parent="yNHjKCnxc_WirZ0jlTK9-1" source="YPFulSD3QjbIXYYutTF_-19" target="YPFulSD3QjbIXYYutTF_-24"><mxGeometry relative="1" as="geometry"/></mxCell><mxCell id="YPFulSD3QjbIXYYutTF_-19" value="解释：拖动的是把手或者图形，需要创建快照，并且存入操作栈&lt;br&gt;1. 创建操作栈节点，并设置快照" style="rounded=1;whiteSpace=wrap;html=1;absoluteArcSize=1;arcSize=14;strokeWidth=2;fontFamily=Helvetica;fontSize=12;fontColor=default;fillColor=default;align=left;" vertex="1" parent="yNHjKCnxc_WirZ0jlTK9-1"><mxGeometry x="410" y="425" width="185" height="82.5" as="geometry"/></mxCell><mxCell id="YPFulSD3QjbIXYYutTF_-22" value="是" style="text;html=1;align=center;verticalAlign=middle;resizable=0;points=[];autosize=1;strokeColor=none;fillColor=none;fontSize=12;fontFamily=Helvetica;fontColor=default;" vertex="1" parent="yNHjKCnxc_WirZ0jlTK9-1"><mxGeometry x="225" y="325" width="35" height="30" as="geometry"/></mxCell><mxCell id="YPFulSD3QjbIXYYutTF_-23" value="否" style="text;html=1;align=center;verticalAlign=middle;resizable=0;points=[];autosize=1;strokeColor=none;fillColor=none;fontSize=12;fontFamily=Helvetica;fontColor=default;" vertex="1" parent="yNHjKCnxc_WirZ0jlTK9-1"><mxGeometry x="465" y="325" width="35" height="30" as="geometry"/></mxCell><mxCell id="YPFulSD3QjbIXYYutTF_-29" style="edgeStyle=orthogonalEdgeStyle;rounded=0;orthogonalLoop=1;jettySize=auto;html=1;exitX=0;exitY=0.5;exitDx=0;exitDy=0;entryX=1;entryY=0.5;entryDx=0;entryDy=0;entryPerimeter=0;fontFamily=Helvetica;fontSize=12;fontColor=default;" edge="1" parent="yNHjKCnxc_WirZ0jlTK9-1" source="YPFulSD3QjbIXYYutTF_-24" target="yNHjKCnxc_WirZ0jlTK9-4"><mxGeometry relative="1" as="geometry"/></mxCell><mxCell id="YPFulSD3QjbIXYYutTF_-24" value="1. 重置myHand状态" style="rounded=1;whiteSpace=wrap;html=1;absoluteArcSize=1;arcSize=14;strokeWidth=2;fontFamily=Helvetica;fontSize=12;fontColor=default;fillColor=default;align=left;" vertex="1" parent="yNHjKCnxc_WirZ0jlTK9-1"><mxGeometry x="325" y="640" width="185" height="82.5" as="geometry"/></mxCell></root></mxGraphModel></diagram></mxfile>